<?xml version="1.0" encoding="utf-8"?>
<!-- Generator: Adobe Illustrator 16.0.0, SVG Export Plug-In . SVG Version: 6.00 Build 0)  -->
<!DOCTYPE svg PUBLIC "-//W3C//DTD SVG 1.1//EN" "http://www.w3.org/Graphics/SVG/1.1/DTD/svg11.dtd">
<svg version="1.1" id="图层_1" xmlns="http://www.w3.org/2000/svg" xmlns:xlink="http://www.w3.org/1999/xlink" x="0px" y="0px"
	 width="500px" height="500px" viewBox="0 0 500 500" enable-background="new 0 0 500 500" xml:space="preserve">
<g>
	
		<linearGradient id="SVGID_1_" gradientUnits="userSpaceOnUse" x1="208.6816" y1="239.2402" x2="305.6201" y2="239.2402" gradientTransform="matrix(0.9988 -0.0495 0.0495 0.9988 -9.5814 5.3885)">
		<stop  offset="0" style="stop-color:#C09549"/>
		<stop  offset="1" style="stop-color:#B19E59"/>
	</linearGradient>
	<polygon fill="url(#SVGID_1_)" points="211.396,248.35 290.191,206.436 306.241,203.7 297.13,215.803 217.066,259.262 	"/>
	<linearGradient id="SVGID_2_" gradientUnits="userSpaceOnUse" x1="241.6187" y1="258.8428" x2="173.2383" y2="258.8428">
		<stop  offset="0" style="stop-color:#B19E59"/>
		<stop  offset="1" style="stop-color:#CB7F34"/>
	</linearGradient>
	<path fill="url(#SVGID_2_)" d="M231.038,246.586c13.658,26.309,14.159,53.126,1.12,59.893c-13.039,6.77-34.681-9.07-48.339-35.378
		c-13.657-26.309-14.16-53.124-1.119-59.892C195.738,204.438,217.381,220.277,231.038,246.586z"/>
	<linearGradient id="SVGID_3_" gradientUnits="userSpaceOnUse" x1="232.7354" y1="263.2861" x2="164.355" y2="263.2861">
		<stop  offset="0" style="stop-color:#F6D0A9"/>
		<stop  offset="1" style="stop-color:#E9D58E"/>
	</linearGradient>
	<path fill="url(#SVGID_3_)" d="M222.154,251.027c13.659,26.31,14.16,53.127,1.12,59.894c-13.039,6.769-34.681-9.07-48.339-35.379
		c-13.657-26.308-14.159-53.124-1.119-59.892C186.854,208.88,208.497,224.719,222.154,251.027z"/>
</g>
</svg>
