<?xml version="1.0" encoding="utf-8"?>
<!-- Generator: Adobe Illustrator 16.0.0, SVG Export Plug-In . SVG Version: 6.00 Build 0)  -->
<!DOCTYPE svg PUBLIC "-//W3C//DTD SVG 1.1//EN" "http://www.w3.org/Graphics/SVG/1.1/DTD/svg11.dtd">
<svg version="1.1" id="图层_1" xmlns="http://www.w3.org/2000/svg" xmlns:xlink="http://www.w3.org/1999/xlink" x="0px" y="0px"
	 width="1000px" height="1000px" viewBox="0 0 1000 1000" enable-background="new 0 0 1000 1000" xml:space="preserve">
<polygon fill="#D3B484" points="592.166,605.034 592.307,622.684 618.373,637.253 618.343,618.222 "/>
<linearGradient id="SVGID_1_" gradientUnits="userSpaceOnUse" x1="489.8198" y1="209.1699" x2="489.8198" y2="537.9204" gradientTransform="matrix(1 0 0 1 -95.3203 159.0801)">
	<stop  offset="0" style="stop-color:#CA8338"/>
	<stop  offset="0.9516" style="stop-color:#A7AD6C"/>
</linearGradient>
<polygon fill="url(#SVGID_1_)" points="316,368.25 340.417,376.292 340.708,614.979 473,676.167 473,697 316,624.333 "/>
<linearGradient id="SVGID_2_" gradientUnits="userSpaceOnUse" x1="759.3926" y1="98.438" x2="808.7783" y2="147.8235" gradientTransform="matrix(1 0 0 -1 -367.9805 764.1201)">
	<stop  offset="0" style="stop-color:#E6D084"/>
	<stop  offset="1" style="stop-color:#F5D5AF"/>
</linearGradient>
<polyline fill="url(#SVGID_2_)" points="363,607 491.5,667 473,676.167 340.708,614.979 "/>
<polyline fill="#A4C4B7" points="340.708,614.979 340.417,376.292 483,320 483,344 363,393.5 363,607 "/>
<linearGradient id="SVGID_3_" gradientUnits="userSpaceOnUse" x1="865.9814" y1="459.1206" x2="978.9814" y2="346.1206" gradientTransform="matrix(1 0 0 -1 -367.9805 764.1201)">
	<stop  offset="0" style="stop-color:#CA872E"/>
	<stop  offset="1" style="stop-color:#A8AF79"/>
</linearGradient>
<polygon fill="url(#SVGID_3_)" points="626,403 626,379 483,320 483,344 "/>
<linearGradient id="SVGID_4_" gradientUnits="userSpaceOnUse" x1="683.9805" y1="424.8701" x2="1016.9805" y2="424.8701" gradientTransform="matrix(1 0 0 -1 -367.9805 764.1201)">
	<stop  offset="0" style="stop-color:#E2D283"/>
	<stop  offset="1" style="stop-color:#F2D9B3"/>
</linearGradient>
<polyline fill="url(#SVGID_4_)" points="483,320 626,379 649,368.25 483,299.5 316,368.25 340.417,376.292 483,320 "/>
<polygon fill="#A4C4B7" points="520,685 520,707 687,629.5 687,611.333 "/>
<polygon fill="#A4C4B7" points="626,379 626,403 649,393 649,368.25 "/>
<polygon fill="#A4C4B7" points="473,676.167 473,697 492,686.438 491.5,667 "/>
<linearGradient id="SVGID_5_" gradientUnits="userSpaceOnUse" x1="850.9805" y1="123.9951" x2="1033.9805" y2="123.9951" gradientTransform="matrix(1 0 0 -1 -367.9805 764.1201)">
	<stop  offset="0" style="stop-color:#E6CF7F"/>
	<stop  offset="1" style="stop-color:#F2D6AE"/>
</linearGradient>
<polygon fill="url(#SVGID_5_)" points="500,684.5 666,612.5 625.25,595.75 601,602.5 626,615 483,676.167 "/>
<polygon fill="#F4D5AB" points="461,678.885 461,700.033 479.167,709.523 479.167,687.561 "/>
<g>
	<g>
		
			<linearGradient id="SVGID_6_" gradientUnits="userSpaceOnUse" x1="601.4082" y1="289.5757" x2="601.4082" y2="401.1035" gradientTransform="matrix(1 0 0 1 -95.3203 159.0801)">
			<stop  offset="0" style="stop-color:#CA8338"/>
			<stop  offset="0.9516" style="stop-color:#A7AD6C"/>
		</linearGradient>
		<polygon fill="url(#SVGID_6_)" points="499.92,448.656 499.92,555.959 512.256,560.184 512.256,452.529 		"/>
		<polygon fill="#A4C4B7" points="522.486,460.204 522.486,555.395 512.256,560.184 512.256,452.529 		"/>
	</g>
	<polyline fill="#A4C4B7" points="402.022,466.343 483.068,434.347 483.068,447.989 414.859,476.125 	"/>
	
		<linearGradient id="SVGID_7_" gradientUnits="userSpaceOnUse" x1="878.1836" y1="329.7729" x2="878.1836" y2="293.7397" gradientTransform="matrix(1 0 0 -1 -367.9805 764.1201)">
		<stop  offset="0.0108" style="stop-color:#AAAD76"/>
		<stop  offset="1" style="stop-color:#CA872E"/>
	</linearGradient>
	<polygon fill="url(#SVGID_7_)" points="537.339,470.38 537.285,456.715 483.068,434.347 483.068,447.989 	"/>
	
		<linearGradient id="SVGID_8_" gradientUnits="userSpaceOnUse" x1="756.124" y1="319.6006" x2="918.3926" y2="319.6006" gradientTransform="matrix(1 0 0 -1 -367.9805 764.1201)">
		<stop  offset="0" style="stop-color:#E2D283"/>
		<stop  offset="1" style="stop-color:#F2D9B3"/>
	</linearGradient>
	<polyline fill="url(#SVGID_8_)" points="483.068,434.347 537.285,456.715 550.412,450.628 483.068,422.695 388.144,461.773 
		402.022,466.343 483.068,434.347 	"/>
	<polygon fill="#A4C4B7" points="537.339,456.737 537.339,470.38 550.412,464.696 550.412,450.628 	"/>
	<g>
		
			<linearGradient id="SVGID_9_" gradientUnits="userSpaceOnUse" x1="490.2017" y1="257.5039" x2="490.2017" y2="397.748" gradientTransform="matrix(1 0 0 1 -95.3203 159.0801)">
			<stop  offset="0" style="stop-color:#CA8338"/>
			<stop  offset="0.9516" style="stop-color:#A7AD6C"/>
		</linearGradient>
		<polyline fill="url(#SVGID_9_)" points="387.859,551.66 387.859,416.584 401.738,421.155 401.903,556.828 		"/>
		<polyline fill="#A4C4B7" points="401.903,556.828 401.738,421.155 482.784,389.159 482.784,402.801 414.575,430.937 
			414.575,552.293 		"/>
		
			<linearGradient id="SVGID_10_" gradientUnits="userSpaceOnUse" x1="859.292" y1="383.4878" x2="923.5227" y2="319.2571" gradientTransform="matrix(1 0 0 -1 -367.9805 764.1201)">
			<stop  offset="0" style="stop-color:#CA872E"/>
			<stop  offset="1" style="stop-color:#A8AF79"/>
		</linearGradient>
		<polygon fill="url(#SVGID_10_)" points="564.067,436.337 564.067,422.695 482.784,389.159 482.784,402.801 		"/>
		
			<linearGradient id="SVGID_11_" gradientUnits="userSpaceOnUse" x1="755.8398" y1="364.0186" x2="945.1211" y2="364.0186" gradientTransform="matrix(1 0 0 -1 -367.9805 764.1201)">
			<stop  offset="0" style="stop-color:#E2D283"/>
			<stop  offset="1" style="stop-color:#F2D9B3"/>
		</linearGradient>
		<polyline fill="url(#SVGID_11_)" points="482.784,389.159 564.067,422.695 577.141,416.584 482.784,377.507 387.859,416.584 
			401.738,421.155 482.784,389.159 		"/>
		<polygon fill="#A4C4B7" points="564.067,422.695 564.067,436.337 577.141,430.653 577.141,416.584 		"/>
	</g>
</g>
<linearGradient id="SVGID_12_" gradientUnits="userSpaceOnUse" x1="781.0703" y1="408.4609" x2="781.0703" y2="500.0859" gradientTransform="matrix(1 0 0 1 -95.3203 159.0801)">
	<stop  offset="0.0215" style="stop-color:#AAAD35"/>
	<stop  offset="0.8387" style="stop-color:#AAAD76"/>
	<stop  offset="1" style="stop-color:#CA872E"/>
</linearGradient>
<polygon fill="url(#SVGID_12_)" points="699.75,637.416 666,654.791 667.75,659.166 704.875,641.166 705.5,567.541 700.125,567.541 
	"/>
</svg>
